<?xml version="1.0" encoding="UTF-8"?> <svg xmlns="http://www.w3.org/2000/svg" width="26" height="26" viewBox="0 0 26 26" fill="none"><path fill-rule="evenodd" clip-rule="evenodd" d="M14.5769 25.4778C20.5638 24.5164 25.1373 19.3266 25.1373 13.0687C25.1373 6.12718 19.5101 0.5 12.5687 0.5C5.62718 0.5 0 6.12718 0 13.0687C0 19.3767 4.64703 24.5994 10.7045 25.5L10.6352 16.6374H7.58594V13.0676H10.6352C10.5361 11.828 10.6055 8.88792 11.6764 7.04353C12.7473 5.19913 16.337 5.48174 17.9979 5.8536V8.9028C17.2542 8.9028 15.6478 8.9623 15.1718 9.20028C14.6959 9.43827 14.5769 10.0431 14.5769 10.3158V13.0676H17.8492L17.3286 16.6374H14.5769V25.4778Z" fill="black"></path></svg> 